<?xml version="1.0" encoding="UTF-8" standalone="no"?>
<!-- Created with Inkscape (http://www.inkscape.org/) -->

<svg
   width="110mm"
   height="35mm"
   viewBox="0 0 183.33337 58.333337"
   version="1.1"
   id="svg1"
   inkscape:version="1.4.4 (dcaf3e7, 2026-05-05)"
   sodipodi:docname="pomodoro_logo_v2.svg"
   inkscape:export-filename="..\pomodoro-timer\images\logo.svg"
   inkscape:export-xdpi="1"
   inkscape:export-ydpi="1"
   xmlns:inkscape="http://www.inkscape.org/namespaces/inkscape"
   xmlns:sodipodi="http://sodipodi.sourceforge.net/DTD/sodipodi-0.dtd"
   xmlns="http://www.w3.org/2000/svg"
   xmlns:svg="http://www.w3.org/2000/svg">
  <sodipodi:namedview
     id="namedview1"
     pagecolor="#ffffff"
     bordercolor="#000000"
     borderopacity="0.25"
     inkscape:showpageshadow="2"
     inkscape:pageopacity="0.0"
     inkscape:pagecheckerboard="0"
     inkscape:deskcolor="#d1d1d1"
     inkscape:document-units="mm"
     showgrid="true"
     showguides="false"
     inkscape:zoom="1"
     inkscape:cx="495.5"
     inkscape:cy="484"
     inkscape:window-width="2560"
     inkscape:window-height="1494"
     inkscape:window-x="-11"
     inkscape:window-y="-11"
     inkscape:window-maximized="1"
     inkscape:current-layer="layer1">
    <inkscape:grid
       id="grid1"
       units="cm"
       originx="-11.751716"
       originy="-9.5811148"
       spacingx="9.9999999"
       spacingy="9.9999999"
       empcolor="#0099e5"
       empopacity="0.30196078"
       color="#0099e5"
       opacity="0.14901961"
       empspacing="5"
       enabled="true"
       visible="true" />
    <inkscape:page
       x="0"
       y="0"
       width="183.33337"
       height="58.33334"
       id="page2"
       margin="0"
       bleed="0" />
  </sodipodi:namedview>
  <defs
     id="defs1" />
  <g
     inkscape:label="Layer 1"
     inkscape:groupmode="layer"
     id="layer1"
     style="fill:none;stroke-width:80;stroke-dasharray:none"
     transform="translate(-11.751717,-9.5811147)">
    <g
       id="g4"
       transform="translate(12.460379,9.1427668)">
      <path
         style="baseline-shift:baseline;display:inline;overflow:visible;fill:#3b82f6;stroke-width:3.461;stroke-linecap:square;stroke-dasharray:none;enable-background:accumulate;stop-color:#000000"
         d="m 31.662552,9.5811453 c -2.270763,0.00397 -4.563113,0.3955818 -6.778318,1.2011477 -7.876287,2.864235 -13.132517,10.364407 -13.132517,18.73887 0,8.374463 5.25623,15.874635 13.132517,18.73887 7.876287,2.864235 16.728107,0.494525 22.115805,-5.920686 0,0 1.744712,-1.126063 1.66926,-1.987667 -0.150907,-1.723225 -2.254073,-3.48647 -3.978802,-3.335695 -0.862356,0.07539 -1.669261,1.987667 -1.669261,1.987667 -3.995634,4.757659 -10.519324,6.504175 -16.360549,4.379996 -5.841225,-2.124179 -9.715037,-7.651801 -9.715037,-13.862485 0,-6.210684 3.873812,-11.738306 9.715037,-13.862485 5.841225,-2.124179 12.364915,-0.377663 16.360549,4.379996 0,0 0.806905,1.912281 1.669261,1.987667 1.724729,0.150775 3.827895,-1.61247 3.978802,-3.335695 0.07545,-0.861604 -1.66926,-1.987667 -1.66926,-1.987667 C 43.127631,12.092046 37.465615,9.5709907 31.662552,9.5811453 Z"
         id="path3"
         sodipodi:nodetypes="sssscsscssscsscs" />
      <path
         id="path4"
         style="fill:#3b82f6;stroke:#3b82f6;stroke-width:3.461"
         d="M 42.095057,29.521164 A 10.175923,10.167053 0 0 1 31.919134,39.688217 10.175923,10.167053 0 0 1 21.743211,29.521164 10.175923,10.167053 0 0 1 31.919134,19.354111 10.175923,10.167053 0 0 1 42.095057,29.521164 Z" />
      <path
         id="rect3-8-1"
         style="fill:#ffffff;stroke-width:3.75812;stroke-linecap:square"
         inkscape:transform-center-x="-32.223058"
         inkscape:transform-center-y="-20.131053"
         transform="matrix(-0.99649749,0.0836227,0.59885957,0.80085406,0,0)"
         d="m -10.005663,32.360268 h 1.2991542 c 0.065366,0 0.1179895,0.03006 0.1179895,0.0674 v 4.650316 c 0,0.03734 -0.052623,0.0674 -0.1179895,0.0674 h -1.2991542 c -0.06537,0 -0.117989,-0.03006 -0.117989,-0.0674 V 32.42767 c 0,-0.03734 0.05262,-0.0674 0.117989,-0.0674 z" />
      <path
         id="rect3-8"
         style="fill:#ffffff;stroke-width:3.67676;stroke-linecap:square"
         inkscape:transform-center-x="39.032579"
         inkscape:transform-center-y="-21.7727"
         transform="matrix(0.99997129,-0.00757791,-0.45680145,0.88956868,0,0)"
         d="m 47.219064,34.814655 h 1.467173 c 0.07382,0 0.133249,0.03657 0.133249,0.08199 v 5.657115 c 0,0.04543 -0.05943,0.08199 -0.133249,0.08199 h -1.467173 c -0.07382,0 -0.133249,-0.03657 -0.133249,-0.08199 v -5.65711 c 0,-0.04543 0.05943,-0.08199 0.133249,-0.08199 z" />
      <path
         id="rect6"
         style="fill:#ffffff;stroke-width:3.461"
         inkscape:transform-center-x="0.2160949"
         inkscape:transform-center-y="-231.90988"
         d="m 31.690098,17.998379 h 0.458076 c 0.126887,0 0.229038,0.102062 0.229038,0.228838 v 2.402803 c 0,0.126776 -0.102151,0.228838 -0.229038,0.228838 h -0.458076 c -0.126887,0 -0.229038,-0.102062 -0.229038,-0.228838 v -2.402803 c 0,-0.126776 0.102151,-0.228838 0.229038,-0.228838 z" />
      <path
         id="rect28"
         style="fill:#ffffff;stroke-width:3.461"
         inkscape:transform-center-x="-231.90988"
         inkscape:transform-center-y="-0.21610005"
         transform="rotate(90)"
         d="m 29.219387,-43.397678 h 0.457677 c 0.126776,0 0.228838,0.102151 0.228838,0.229038 v 2.404899 c 0,0.126887 -0.102062,0.229038 -0.228838,0.229038 h -0.457677 c -0.126776,0 -0.228838,-0.102151 -0.228838,-0.229038 v -2.404899 c 0,-0.126887 0.102062,-0.229038 0.228838,-0.229038 z" />
      <path
         id="rect29"
         style="fill:#ffffff;stroke-width:3.461"
         inkscape:transform-center-x="-0.21611531"
         inkscape:transform-center-y="231.90991"
         transform="scale(-1)"
         d="m -32.166882,-40.916763 h 0.458076 c 0.126887,0 0.229038,0.102062 0.229038,0.228838 v 2.402803 c 0,0.126776 -0.102151,0.228838 -0.229038,0.228838 h -0.458076 c -0.126887,0 -0.229038,-0.102062 -0.229038,-0.228838 v -2.402803 c 0,-0.126776 0.102151,-0.228838 0.229038,-0.228838 z" />
      <path
         id="rect30"
         style="fill:#ffffff;stroke-width:3.461"
         inkscape:transform-center-x="231.90992"
         inkscape:transform-center-y="0.2161148"
         transform="rotate(-90)"
         d="m -29.695755,20.459297 h 0.457677 c 0.126776,0 0.228838,0.102151 0.228838,0.229038 v 2.404899 c 0,0.126887 -0.102062,0.229038 -0.228838,0.229038 h -0.457677 c -0.126776,0 -0.228838,-0.102151 -0.228838,-0.229038 v -2.404899 c 0,-0.126887 0.102062,-0.229038 0.228838,-0.229038 z" />
      <path
         id="rect31"
         style="fill:#ffffff;stroke-width:3.461"
         inkscape:transform-center-x="-110.33033"
         inkscape:transform-center-y="-208.06825"
         transform="matrix(0.86621412,0.49967299,-0.50032701,0.86583652,0,0)"
         d="m 42.336334,-1.6079974 h 0.144244 c 0.07991,0 0.144244,0.051042 0.144244,0.1144441 v 1.48777359 c 0,0.06340203 -0.06433,0.1144441 -0.144244,0.1144441 h -0.144244 c -0.07991,0 -0.144245,-0.05104207 -0.144245,-0.1144441 V -1.4935533 c 0,-0.063402 0.06433,-0.1144441 0.144245,-0.1144441 z" />
      <path
         id="rect32"
         style="fill:#ffffff;stroke-width:3.461"
         inkscape:transform-center-x="-199.58298"
         inkscape:transform-center-y="-125.02721"
         transform="matrix(0.50032719,0.86583642,-0.86621412,0.49967299,0,0)"
         d="m 41.304826,-24.26053 h 0.144182 c 0.07988,0 0.144181,0.05106 0.144181,0.114494 v 1.488422 c 0,0.06343 -0.06431,0.114494 -0.144181,0.114494 h -0.144182 c -0.07988,0 -0.144181,-0.05106 -0.144181,-0.114494 v -1.488422 c 0,-0.06343 0.0643,-0.114494 0.144181,-0.114494 z" />
      <path
         id="rect34"
         style="fill:#ffffff;stroke-width:3.461"
         inkscape:transform-center-x="-208.06834"
         inkscape:transform-center-y="110.33033"
         transform="matrix(-0.50032701,0.86583652,-0.86621412,-0.49967299,0,0)"
         d="m 9.0671809,-53.687885 h 0.1441816 c 0.079877,0 0.1441816,0.05106 0.1441816,0.114494 v 1.488422 c 0,0.06343 -0.064305,0.114495 -0.1441816,0.114495 H 9.0671809 c -0.079877,0 -0.1441815,-0.05106 -0.1441815,-0.114495 v -1.488422 c 0,-0.06343 0.064305,-0.114494 0.1441815,-0.114494 z" />
      <path
         id="rect35"
         style="fill:#ffffff;stroke-width:3.461"
         inkscape:transform-center-x="-125.02726"
         inkscape:transform-center-y="199.58297"
         transform="matrix(-0.86621412,0.49967299,-0.50032701,-0.86583652,0,0)"
         d="m -13.525257,-52.706837 h 0.144245 c 0.07991,0 0.144244,0.05104 0.144244,0.114444 v 1.487774 c 0,0.0634 -0.06433,0.114444 -0.144244,0.114444 h -0.144245 c -0.07991,0 -0.144244,-0.05104 -0.144244,-0.114444 v -1.487774 c 0,-0.0634 0.06433,-0.114444 0.144244,-0.114444 z" />
      <path
         id="rect42"
         style="fill:#ffffff;stroke-width:3.461"
         inkscape:transform-center-x="199.58297"
         inkscape:transform-center-y="125.02727"
         transform="matrix(-0.50032701,-0.86583652,0.86621412,-0.49967299,0,0)"
         d="m -42.107356,2.0425334 h 0.144182 c 0.07988,0 0.144181,0.051064 0.144181,0.114494 v 1.4884228 c 0,0.06343 -0.06431,0.114494 -0.144181,0.114494 h -0.144182 c -0.07988,0 -0.144181,-0.051064 -0.144181,-0.114494 V 2.1570274 c 0,-0.06343 0.0643,-0.114494 0.144181,-0.114494 z" />
      <path
         id="rect43"
         style="fill:#ffffff;stroke-width:3.461"
         inkscape:transform-center-x="110.33027"
         inkscape:transform-center-y="208.06828"
         transform="matrix(-0.86621412,-0.49967299,0.50032701,-0.86583652,0,0)"
         d="m -43.083779,-20.544895 h 0.144244 c 0.07991,0 0.144245,0.05104 0.144245,0.114444 v 1.487774 c 0,0.0634 -0.06433,0.114444 -0.144245,0.114444 h -0.144244 c -0.07991,0 -0.144245,-0.05104 -0.144245,-0.114444 v -1.487774 c 0,-0.0634 0.06433,-0.114444 0.144245,-0.114444 z" />
      <path
         id="rect1"
         style="fill:#ffffff;stroke-width:3.461"
         inkscape:transform-center-x="208.06826"
         inkscape:transform-center-y="-110.33031"
         transform="matrix(0.50032719,-0.86583642,0.86621412,0.49967299,0,0)"
         d="m -9.9143235,31.654934 h 0.1441816 c 0.079877,0 0.1441816,0.05106 0.1441816,0.114494 v 1.488423 c 0,0.06343 -0.064305,0.114494 -0.1441816,0.114494 h -0.1441816 c -0.079877,0 -0.1441815,-0.05107 -0.1441815,-0.114494 v -1.488423 c 0,-0.06343 0.064305,-0.114494 0.1441815,-0.114494 z" />
      <path
         id="rect2"
         style="fill:#ffffff;stroke-width:3.461"
         inkscape:transform-center-x="125.02724"
         inkscape:transform-center-y="-199.58296"
         transform="matrix(0.86621412,-0.49967299,0.50032701,0.86583652,0,0)"
         d="m 12.700518,30.660734 h 0.144244 c 0.07991,0 0.144245,0.05104 0.144245,0.114444 v 1.487774 c 0,0.0634 -0.06433,0.114444 -0.144245,0.114444 h -0.144244 c -0.07991,0 -0.144245,-0.05104 -0.144245,-0.114444 v -1.487774 c 0,-0.0634 0.06433,-0.114444 0.144245,-0.114444 z" />
      <path
         id="rect3"
         style="fill:#ffffff;stroke-width:3.76262;stroke-linecap:square"
         transform="matrix(0.99943395,0.03364206,-0.56118432,0.82769086,0,0)"
         d="m 50.707845,25.850004 h 1.391605 c 0.07002,0 0.126386,0.0456 0.126386,0.102233 v 7.0534 c 0,0.05664 -0.05637,0.102233 -0.126386,0.102233 h -1.391605 c -0.07002,0 -0.126386,-0.0456 -0.126386,-0.102233 v -7.0534 c 0,-0.05664 0.05637,-0.102233 0.126386,-0.102233 z" />
      <path
         id="path6"
         style="display:inline;fill:#ffffff;stroke-width:3.461;stroke-linecap:square"
         d="m 33.704106,29.559105 a 1.514897,1.5135764 0 0 1 -1.514897,1.513576 1.514897,1.5135764 0 0 1 -1.514897,-1.513576 1.514897,1.5135764 0 0 1 1.514897,-1.513576 1.514897,1.5135764 0 0 1 1.514897,1.513576 z" />
      <path
         style="font-weight:900;font-size:136.063px;font-family:Nunito;-inkscape-font-specification:'Nunito Heavy';white-space:pre;fill:#3b82f6;stroke-width:64.252;stroke-linecap:square"
         d="m 1346.342,507.35479 q -7.7555,0 -13.7423,-2.85733 -5.8507,-2.85732 -9.2523,-7.75559 -3.2655,-5.03433 -3.2655,-11.42929 0,-7.3474 3.8098,-11.56536 3.8097,-4.21795 12.2456,-5.98677 8.4359,-1.90488 22.4504,-1.90488 h 7.4835 v 11.42929 h -7.4835 q -5.3064,0 -8.8441,0.81638 -3.4016,0.68032 -5.0343,2.31307 -1.6328,1.49669 -1.6328,3.94583 0,3.12945 2.177,5.17039 2.3131,2.04095 6.5311,2.04095 3.4015,0 5.9867,-1.4967 2.7213,-1.49669 4.3541,-4.08189 1.6327,-2.72126 1.6327,-6.25889 v -15.78331 q 0,-4.89827 -2.5852,-6.93922 -2.4491,-2.04094 -8.572,-2.04094 -3.2655,0 -7.3474,0.81638 -4.0818,0.68031 -9.1162,2.58519 -3.6737,1.36063 -6.2589,0.40819 -2.5852,-0.95244 -4.0819,-3.26551 -1.3606,-2.31307 -1.3606,-5.03433 0.1361,-2.72126 1.7688,-5.17039 1.7688,-2.44914 5.3065,-3.80977 6.531,-2.44913 11.9735,-3.26551 5.5786,-0.81638 10.2048,-0.81638 11.1571,0 18.3685,3.26551 7.3474,3.12945 10.885,9.79654 3.6737,6.53102 3.6737,16.87181 v 27.48473 q 0,5.98677 -2.8573,9.11622 -2.8573,3.12945 -8.2999,3.12945 -5.5786,0 -8.5719,-3.12945 -2.8574,-3.12945 -2.8574,-9.11622 v -3.53764 l 0.8164,1.90488 q -0.6803,4.35402 -3.1294,7.48347 -2.4492,3.12945 -6.395,4.89827 -3.9458,1.76882 -8.9802,1.76882 z m 80.1413,0 q -8.572,0 -15.2391,-4.21796 -6.531,-4.21795 -10.3408,-12.1096 -3.6737,-7.89166 -3.6737,-18.64064 0,-11.0211 3.6737,-18.77669 3.8098,-7.75559 10.3408,-11.97354 6.6671,-4.21796 15.2391,-4.21796 7.4834,0 13.4702,3.53764 5.9868,3.53764 8.0277,9.11622 h -1.4967 v -29.11748 q 0,-5.98677 3.1295,-9.11622 3.1294,-3.12945 8.9801,-3.12945 5.7147,0 8.8441,3.12945 3.2655,3.12945 3.2655,9.11622 v 73.88221 q 0,5.98677 -3.1294,9.11622 -2.9934,3.12945 -8.8441,3.12945 -5.7146,0 -8.8441,-3.12945 -3.1294,-3.12945 -3.1294,-9.11622 v -7.75559 l 1.4967,6.66709 q -1.9049,6.12283 -8.0278,9.93259 -5.9867,3.67371 -13.7423,3.67371 z m 7.7556,-17.82426 q 3.6737,0 6.531,-1.76882 2.8573,-1.90488 4.354,-5.57858 1.6328,-3.80976 1.6328,-9.79654 0,-9.11622 -3.5377,-13.06204 -3.5376,-4.08189 -8.9801,-4.08189 -3.6737,0 -6.5311,1.76881 -2.8573,1.76882 -4.49,5.57859 -1.6328,3.6737 -1.6328,9.79653 0,8.98016 3.5376,13.06205 3.5377,4.08189 9.1163,4.08189 z m 86.9443,17.82426 q -12.2456,0 -21.2258,-4.21796 -8.8441,-4.35401 -13.6063,-12.24567 -4.7622,-7.89165 -4.7622,-18.64063 0,-10.34079 4.4901,-18.09638 4.6261,-7.89165 12.5178,-12.24567 8.0277,-4.49008 18.2324,-4.49008 7.4835,0 13.6063,2.44914 6.1228,2.31307 10.4769,6.93921 4.354,4.49008 6.531,10.88504 2.3131,6.39496 2.3131,14.28661 0,2.72127 -1.4967,4.0819 -1.4967,1.22456 -4.7622,1.22456 h -41.6353 v -11.42929 h 30.206 l -2.177,1.76882 q 0,-5.03433 -1.3607,-8.16378 -1.3606,-3.12945 -4.0819,-4.76221 -2.5852,-1.63275 -6.531,-1.63275 -4.2179,0 -7.3474,2.04094 -2.9934,1.90488 -4.6261,5.71465 -1.6328,3.80976 -1.6328,9.52441 v 1.22457 q 0,9.66047 4.218,13.87842 4.354,4.08189 13.3341,4.08189 2.9934,0 6.8032,-0.68031 3.9458,-0.81638 7.4835,-2.17701 3.5376,-1.36063 6.1228,-0.40819 2.5852,0.81638 3.9458,2.99339 1.4967,2.04094 1.6328,4.7622 0.136,2.5852 -1.2246,5.1704 -1.3606,2.44913 -4.4901,3.80976 -4.7622,2.17701 -10.2047,3.26551 -5.3065,1.08851 -10.749,1.08851 z m 51.0237,-0.27213 q -5.7146,0 -8.8441,-3.12945 -3.1294,-3.12945 -3.1294,-9.11622 v -45.03685 q 0,-5.85071 2.9933,-8.98016 3.1295,-3.12945 8.8441,-3.12945 5.7147,0 8.7081,3.12945 2.9934,3.12945 2.9934,8.98016 v 6.39496 l -1.4967,-5.57859 q 3.2655,-6.39496 9.2522,-9.79653 6.1229,-3.40158 13.8785,-3.40158 8.0277,0 13.1981,3.12945 5.1704,2.99339 7.7556,9.52441 2.5852,6.39496 2.5852,16.1915 v 28.57323 q 0,5.98677 -3.1295,9.11622 -3.1294,3.12945 -8.9801,3.12945 -5.8507,0 -8.9802,-3.12945 -3.1294,-3.12945 -3.1294,-9.11622 V 467.2162 q 0,-6.12284 -2.177,-8.70803 -2.041,-2.5852 -6.1229,-2.5852 -5.4425,0 -8.708,3.53764 -3.2655,3.40157 -3.2655,9.25228 v 26.1241 q 0,12.24567 -12.2457,12.24567 z m 104.6326,0.27213 q -11.2933,0 -19.7292,-4.21796 -8.2998,-4.21795 -12.926,-12.1096 -4.6261,-8.02772 -4.6261,-18.7767 0,-8.16378 2.5852,-14.55874 2.5852,-6.53102 7.4835,-11.0211 5.0343,-4.49008 11.8374,-6.80315 6.9392,-2.44914 15.3752,-2.44914 3.9458,0 8.2998,0.81638 4.354,0.68032 8.9802,2.72126 3.2655,1.22457 4.49,3.80976 1.3607,2.44914 1.0885,5.30646 -0.136,2.85732 -1.6327,5.1704 -1.3606,2.31307 -3.9458,3.12944 -2.4492,0.81638 -5.5786,-0.68031 -2.177,-1.0885 -4.6262,-1.49669 -2.313,-0.54426 -4.49,-0.54426 -3.6737,0 -6.5311,1.08851 -2.7212,1.0885 -4.6261,3.26551 -1.9049,2.04095 -2.9934,5.17039 -0.9524,3.12945 -0.9524,7.07528 0,7.89166 3.9458,12.38173 3.9458,4.49008 11.1572,4.49008 2.177,0 4.49,-0.40819 2.3131,-0.54425 4.6262,-1.63275 3.1294,-1.49669 5.5786,-0.54425 2.4491,0.81637 3.9458,3.12945 1.4967,2.31307 1.6327,5.17039 0.1361,2.72126 -1.2245,5.30646 -1.3607,2.44913 -4.6262,3.6737 -4.49,2.04094 -8.8441,2.72126 -4.2179,0.81638 -8.1637,0.81638 z m 52.8563,24.21921 q -4.218,0 -6.8032,-2.17701 -2.5851,-2.17701 -3.2655,-5.71464 -0.5442,-3.53764 1.2246,-7.48347 l 9.1162,-19.72913 v 9.79653 l -23.2667,-53.20063 q -1.7689,-4.08189 -1.2246,-7.61953 0.6803,-3.53764 3.6737,-5.57858 2.9934,-2.17701 8.1638,-2.17701 4.354,0 6.9392,2.04094 2.7212,1.90489 4.8982,7.61953 l 13.6063,35.37638 h -4.6261 l 14.4227,-35.51244 q 2.177,-5.57858 4.8983,-7.48347 2.8573,-2.04094 7.6195,-2.04094 4.0819,0 6.531,2.17701 2.4491,2.04094 2.9934,5.57858 0.5442,3.53764 -1.2246,7.61953 l -30.8863,69.39213 q -2.4491,5.44252 -5.4425,7.21134 -2.8573,1.90488 -7.3474,1.90488 z"
         id="text1"
         transform="matrix(0.26458333,0,0,0.26458333,-299.50833,-91.016666)"
         aria-label="adency" />
    </g>
  </g>
</svg>
